<?xml version="1.0" encoding="utf-8"?>
<!-- Generator: Adobe Illustrator 17.1.0, SVG Export Plug-In . SVG Version: 6.00 Build 0)  -->
<!DOCTYPE svg PUBLIC "-//W3C//DTD SVG 1.1//EN" "http://www.w3.org/Graphics/SVG/1.1/DTD/svg11.dtd">
<svg version="1.1" id="Layer_1" xmlns="http://www.w3.org/2000/svg" xmlns:xlink="http://www.w3.org/1999/xlink" x="0px" y="0px"
	 viewBox="0 0 300 300" enable-background="new 0 0 300 300" xml:space="preserve">
<path fill="#AB98C7" d="M207,82.1c0,0.7,0,1.3,0,2c0.1,9-0.9,18.3-10.7,20.9c-8.9,2.4-19.1-0.8-28.1-0.8c-12-0.1-24-0.2-36,0.9
	c-11.5,1-21.1,5.3-32,7.4c-4.2,0.8-8.9,0.1-11.9-3c-2.5-2.5-3.4-6.1-3.9-9.6c-1.8-12.6,0.7-25.4,0.4-38.2
	C84.4,46.3,70.3,11.9,51,32.2c-6.3,6.6-7.9,16.3-8.7,25.4c-1.9,21.5-0.1,42.6-0.1,64c0,22.7,1.1,45.6,6.6,67.8
	c7.2,29,23,57.2,48.5,72.9c28.9,17.8,67.4,16.9,97.2,0.6c39-21.4,57.3-61,61.9-103.4c2.6-23.9,0.9-48.2-3.5-71.7
	c-3.4-18.4-7-39-20.8-52.8c-4.2-4.2-10.2-7.8-15.9-6c-4.1,1.3-6.9,5.1-8.2,9.1s-1.3,8.4-1.2,12.6C206.8,61.1,206.9,71.6,207,82.1z"
	/>
<path fill="#FFFFFF" d="M208,83.1c-2.8,2-1.1,7.5-1.7,10.3c-1.2,5.6-4.3,10.1-10.1,11.6c-8.9,2.4-19.1-0.8-28.1-0.8
	c-12-0.1-24-0.2-36,0.9c-11.5,1-21.1,5.3-32,7.4c-4.2,0.8-8.9,0.1-11.9-3c-2.9-3-1.9-17.8-6.3-18.3c-1.1-0.1-2.2,0.5-3.2,1.1
	c-6.5,4-13.8,6.6-21.4,7.7c-3.1,0.5-6.9,0.4-8.8-2.1c-0.8-1.1-1.1-2.6-1.8-3.8c-4.7-9.5-6.1,9.7-5.8,12.3c0.5,5.1,1.2,9.9,1.2,15
	c0,22.7,1.1,45.6,6.6,67.8c7.2,29,23,57.2,48.5,72.9c28.9,17.8,67.4,16.9,97.2,0.6c39-21.4,57.3-61,61.9-103.4
	c2.1-19.4,0.9-38.2-1-57.2c-0.7-6.5-2.5-13.1-2.8-19.7c0.3,6.8-16,5-19.7,4.8c-4.6-0.3-9.2-0.9-13.8-1.7
	C217.1,85.1,209.2,82.3,208,83.1z"/>
<g>
	<defs>
		<path id="SVGID_3_" d="M207,82.1c0,0.7,0,1.3,0,2c0.1,9-0.9,18.3-10.7,20.9c-8.9,2.4-19.1-0.8-28.1-0.8c-12-0.1-24-0.2-36,0.9
			c-11.5,1-21.1,5.3-32,7.4c-4.2,0.8-8.9,0.1-11.9-3c-2.5-2.5-3.4-6.1-3.9-9.6c-1.8-12.6,0.7-25.4,0.4-38.2
			C84.4,46.3,70.3,11.9,51,32.2c-6.3,6.6-7.9,16.3-8.7,25.4c-1.9,21.5-0.1,42.6-0.1,64c0,22.7,1.1,45.6,6.6,67.8
			c7.2,29,23,57.2,48.5,72.9c28.9,17.8,67.4,16.9,97.2,0.6c39-21.4,57.3-61,61.9-103.4c2.6-23.9,0.9-48.2-3.5-71.7
			c-3.4-18.4-7-39-20.8-52.8c-4.2-4.2-10.2-7.8-15.9-6c-4.1,1.3-6.9,5.1-8.2,9.1s-1.3,8.4-1.2,12.6C206.8,61.1,206.9,71.6,207,82.1z
			"/>
	</defs>
	<clipPath id="SVGID_1_">
		<use xlink:href="#SVGID_3_"  overflow="visible"/>
	</clipPath>
	<path clip-path="url(#SVGID_1_)" fill="#FCEEE9" d="M108.9,198.7c-0.9-12.3-7.6-23.1-21.9-25.9c-8.7-1.8-17.8-0.5-26.6,0.8
		c-6.3,0.9-13.3,2.2-17.1,7.3c-4.8,6.4-2.2,15.5,0.5,23c2.7,7.4,5.4,14.9,9.6,21.7c5.7,9.1,17,17.2,28.1,16.4
		c12-0.9,21.1-14.6,24.7-24.9C108.4,210.9,109.3,204.6,108.9,198.7z"/>
	<path clip-path="url(#SVGID_1_)" fill="#FCEEE9" d="M181.4,192.3c0.5-7.4,3.4-14.8,9-19.6c9.3-7.9,22.9-7,35-5.8
		c10.3,1.1,22.2,3.2,27.3,12.2c3.9,6.9,2.3,15.6,0.6,23.4c-2.8,13-5.9,26.6-20.7,28.1c-13.2,1.4-28.7,0.4-39.1-8.8
		c-7.6-6.7-12-16.6-12.2-26.7C181.3,194.1,181.3,193.2,181.4,192.3z"/>
</g>
<g>
	<path d="M101.8,173.1c-1,0-2-0.3-2.8-0.9c-2.3-1.6-2.9-4.7-1.3-6.9c4.3-6.4,15.1-6.6,20.2-5.9c2.7,0.4,4.6,2.9,4.2,5.7
		c-0.4,2.7-3,4.6-5.7,4.2c-4.6-0.7-9.7,0.5-10.5,1.6C105,172.3,103.4,173.1,101.8,173.1z"/>
	<path d="M164.1,169c-1.8,0-3.5-1-4.4-2.6c-1.3-2.4-0.4-5.5,2-6.8c6.5-3.5,19.8-7,28-1.5c2.3,1.5,2.9,4.6,1.4,6.9
		c-1.5,2.3-4.6,2.9-6.9,1.4c-3.5-2.4-12.3-0.9-17.7,2C165.7,168.8,164.9,169,164.1,169z"/>
	<path d="M145.2,217.7L145.2,217.7c-7.1-0.1-13-9.5-15.2-13.5c-5.3-9.8-3.2-13.2-2.5-14.3c3.9-6.1,24.1-6.3,24.3-6.3
		c4.4,0,6.8,0.6,8.5,2c2.9,2.5,3,6.7,0.2,14.2C158.6,205.2,153.2,217.7,145.2,217.7z M136.9,195.5c1.3,3.8,5.5,10.4,8.1,12
		c2.4-2,5.9-9.4,7.2-13.9C146.9,193.5,140.2,194.5,136.9,195.5z"/>
</g>
<path d="M145.2,280.3c-18.5,0-36-4.8-50.6-13.8c-24.3-15-42.3-41.9-50.7-75.9c-5.9-23.7-6.7-48.2-6.7-69c0-6.9-0.2-13.7-0.4-20.6
	c-0.4-14.3-0.8-29,0.5-43.8c0.9-10.2,2.8-20.7,10.1-28.4c4.9-5.2,10.1-7.8,15.4-7.8c16.9,0,26.6,26.9,26.9,40.7
	c0.1,5.1-0.2,10.3-0.5,15.4c-0.5,7.7-0.9,15,0.1,22.2c0.3,2.3,0.9,5.2,2.5,6.8c1.5,1.6,3.9,1.8,5.2,1.8c0.7,0,1.5-0.1,2.2-0.2
	c4.2-0.8,8.3-2,12.3-3.2c6.3-1.8,12.9-3.7,20.2-4.4c9.4-0.8,18.8-1,25.9-1l10.3,0.1c3.7,0,7.2,0.4,10.7,0.9c5.8,0.7,12,1.3,16.3,0.1
	c5.3-1.4,7.1-5.6,7-16c0,0,0-1,0-1l-0.3-32.5c0-4.4-0.1-9.3,1.5-14.2c1.9-6.1,6.2-10.7,11.5-12.4c1.5-0.5,3-0.7,4.6-0.7
	c7.3,0,13.4,5,16.3,7.9c14.5,14.5,18.4,35.5,21.9,54l0.3,1.4c4.8,25.9,6,50.5,3.6,73.2c-3.8,34.9-18,81.8-64.5,107.3
	C181.1,275.7,163.3,280.3,145.2,280.3z M62.8,30.9c-2.4,0-5.2,1.6-8.1,4.7C49.4,41,48,49.6,47.3,58c-1.3,14.2-0.9,28.7-0.5,42.7
	c0.2,6.9,0.4,13.9,0.4,20.8c0,20.2,0.8,43.9,6.4,66.6c7.8,31.4,24.2,56.2,46.3,69.8c26,16.1,63.6,16.1,92.1,0.5
	c42.7-23.4,55.8-67.1,59.4-99.6c2.3-21.7,1.2-45.4-3.5-70.3l-0.3-1.4c-3.3-17.9-6.8-36.4-19.1-48.8c-3.8-3.8-7.9-5.7-10.9-4.7
	c-2.1,0.7-4,2.9-5,5.9c-1.1,3.3-1,7.3-1,11.1L212,82c0,0,0,1,0,1l0,1c0.1,6.5,0.2,21.8-14.4,25.7c-5.8,1.5-13.3,1-20.1,0.1
	c-3.2-0.4-6.3-0.8-9.3-0.8l-10.5-0.1c-6.9,0-16,0.1-25,0.9c-6.4,0.6-12.2,2.3-18.4,4c-4.3,1.2-8.6,2.5-13.2,3.4
	c-6.2,1.2-12.6-0.4-16.4-4.4c-3.6-3.7-4.7-8.6-5.3-12.4c-1.2-8.2-0.7-16.3-0.2-24.2c0.3-4.9,0.6-9.7,0.5-14.5
	C79.5,50.2,71.2,30.9,62.8,30.9z"/>
</svg>
